<mxfile host="65bd71144e">
    <diagram id="-vW4cAn64GZEZsglsu0c" name="STS Num">
        <mxGraphModel dx="1413" dy="766" grid="1" gridSize="10" guides="1" tooltips="1" connect="1" arrows="1" fold="1" page="1" pageScale="1" pageWidth="850" pageHeight="1100" math="0" shadow="0">
            <root>
                <mxCell id="0"/>
                <mxCell id="1" parent="0"/>
                <mxCell id="pDl559EHoy8wQC_3aLt_-21" value="" style="edgeStyle=none;html=1;" parent="1" source="6" target="8" edge="1">
                    <mxGeometry relative="1" as="geometry"/>
                </mxCell>
                <mxCell id="6" value="Đã Login" style="rounded=1;whiteSpace=wrap;html=1;" parent="1" vertex="1">
                    <mxGeometry x="237.5" y="40" width="120" height="60" as="geometry"/>
                </mxCell>
                <mxCell id="pDl559EHoy8wQC_3aLt_-22" value="" style="edgeStyle=none;html=1;" parent="1" source="8" target="11" edge="1">
                    <mxGeometry relative="1" as="geometry"/>
                </mxCell>
                <mxCell id="8" value="Vào STS" style="rounded=1;whiteSpace=wrap;html=1;" parent="1" vertex="1">
                    <mxGeometry x="237.5" y="160" width="120" height="60" as="geometry"/>
                </mxCell>
                <mxCell id="pDl559EHoy8wQC_3aLt_-28" value="" style="edgeStyle=none;html=1;" parent="1" source="9" target="15" edge="1">
                    <mxGeometry relative="1" as="geometry"/>
                </mxCell>
                <mxCell id="9" value="Khởi tạo STS tuần" style="rounded=1;whiteSpace=wrap;html=1;" parent="1" vertex="1">
                    <mxGeometry x="640" y="520" width="120" height="60" as="geometry"/>
                </mxCell>
                <mxCell id="pDl559EHoy8wQC_3aLt_-30" value="" style="edgeStyle=none;html=1;entryX=0.5;entryY=0;entryDx=0;entryDy=0;" parent="1" source="10" target="16" edge="1">
                    <mxGeometry relative="1" as="geometry">
                        <mxPoint x="297.5" y="540" as="targetPoint"/>
                    </mxGeometry>
                </mxCell>
                <mxCell id="pDl559EHoy8wQC_3aLt_-32" value="" style="edgeStyle=none;html=1;entryX=0.5;entryY=0;entryDx=0;entryDy=0;" parent="1" source="10" target="18" edge="1">
                    <mxGeometry relative="1" as="geometry">
                        <mxPoint x="297.5" y="540" as="targetPoint"/>
                    </mxGeometry>
                </mxCell>
                <mxCell id="pDl559EHoy8wQC_3aLt_-34" value="" style="edgeStyle=none;html=1;entryX=0;entryY=0.5;entryDx=0;entryDy=0;" parent="1" source="10" target="9" edge="1">
                    <mxGeometry relative="1" as="geometry">
                        <mxPoint x="650" y="550" as="targetPoint"/>
                    </mxGeometry>
                </mxCell>
                <mxCell id="10" value="Màn hình STS" style="rounded=1;whiteSpace=wrap;html=1;" parent="1" vertex="1">
                    <mxGeometry x="237.5" y="400" width="120" height="60" as="geometry"/>
                </mxCell>
                <mxCell id="pDl559EHoy8wQC_3aLt_-23" value="" style="edgeStyle=none;html=1;" parent="1" source="11" target="10" edge="1">
                    <mxGeometry relative="1" as="geometry"/>
                </mxCell>
                <mxCell id="23" value="No" style="edgeLabel;html=1;align=center;verticalAlign=middle;resizable=0;points=[];" vertex="1" connectable="0" parent="pDl559EHoy8wQC_3aLt_-23">
                    <mxGeometry x="-0.3333" y="2" relative="1" as="geometry">
                        <mxPoint as="offset"/>
                    </mxGeometry>
                </mxCell>
                <mxCell id="pDl559EHoy8wQC_3aLt_-25" value="" style="edgeStyle=none;html=1;entryX=0;entryY=0.5;entryDx=0;entryDy=0;" parent="1" source="11" target="12" edge="1">
                    <mxGeometry relative="1" as="geometry">
                        <mxPoint x="452.5" y="320" as="targetPoint"/>
                    </mxGeometry>
                </mxCell>
                <mxCell id="22" value="Yes" style="edgeLabel;html=1;align=center;verticalAlign=middle;resizable=0;points=[];" vertex="1" connectable="0" parent="pDl559EHoy8wQC_3aLt_-25">
                    <mxGeometry x="-0.04" relative="1" as="geometry">
                        <mxPoint as="offset"/>
                    </mxGeometry>
                </mxCell>
                <mxCell id="11" value="Chưa có data" style="rhombus;whiteSpace=wrap;html=1;" parent="1" vertex="1">
                    <mxGeometry x="230" y="280" width="135" height="80" as="geometry"/>
                </mxCell>
                <mxCell id="pDl559EHoy8wQC_3aLt_-27" value="" style="edgeStyle=none;html=1;entryX=0.5;entryY=0;entryDx=0;entryDy=0;" parent="1" source="12" target="9" edge="1">
                    <mxGeometry relative="1" as="geometry">
                        <mxPoint x="700" y="430" as="targetPoint"/>
                    </mxGeometry>
                </mxCell>
                <mxCell id="12" value="Empty State" style="rounded=1;whiteSpace=wrap;html=1;" parent="1" vertex="1">
                    <mxGeometry x="640" y="290" width="120" height="60" as="geometry"/>
                </mxCell>
                <mxCell id="15" value="Nhập số tiền → Nhập hạng mục → Xác nhận" style="rounded=1;whiteSpace=wrap;html=1;" parent="1" vertex="1">
                    <mxGeometry x="640" y="640" width="120" height="60" as="geometry"/>
                </mxCell>
                <mxCell id="pDl559EHoy8wQC_3aLt_-35" value="" style="edgeStyle=none;html=1;" parent="1" source="16" target="20" edge="1">
                    <mxGeometry relative="1" as="geometry"/>
                </mxCell>
                <mxCell id="pDl559EHoy8wQC_3aLt_-36" value="" style="edgeStyle=none;html=1;" parent="1" source="16" target="20" edge="1">
                    <mxGeometry relative="1" as="geometry"/>
                </mxCell>
                <mxCell id="pDl559EHoy8wQC_3aLt_-38" value="" style="edgeStyle=none;html=1;" parent="1" source="16" target="20" edge="1">
                    <mxGeometry relative="1" as="geometry"/>
                </mxCell>
                <mxCell id="pDl559EHoy8wQC_3aLt_-39" value="" style="edgeStyle=none;html=1;" parent="1" source="16" target="20" edge="1">
                    <mxGeometry relative="1" as="geometry"/>
                </mxCell>
                <mxCell id="pDl559EHoy8wQC_3aLt_-40" value="" style="edgeStyle=none;html=1;" parent="1" source="16" target="20" edge="1">
                    <mxGeometry relative="1" as="geometry"/>
                </mxCell>
                <mxCell id="pDl559EHoy8wQC_3aLt_-42" value="" style="edgeStyle=none;html=1;entryX=0.5;entryY=0;entryDx=0;entryDy=0;" parent="1" source="16" target="19" edge="1">
                    <mxGeometry relative="1" as="geometry">
                        <mxPoint y="550" as="targetPoint"/>
                    </mxGeometry>
                </mxCell>
                <mxCell id="16" value="Chi tiết STS" style="rounded=1;whiteSpace=wrap;html=1;" parent="1" vertex="1">
                    <mxGeometry x="80" y="520" width="120" height="60" as="geometry"/>
                </mxCell>
                <mxCell id="pDl559EHoy8wQC_3aLt_-45" value="" style="edgeStyle=none;html=1;" parent="1" source="18" target="21" edge="1">
                    <mxGeometry relative="1" as="geometry"/>
                </mxCell>
                <mxCell id="18" value="Lịch sử tuần" style="rounded=1;whiteSpace=wrap;html=1;" parent="1" vertex="1">
                    <mxGeometry x="400" y="520" width="120" height="60" as="geometry"/>
                </mxCell>
                <mxCell id="19" value="Cách tính STS" style="rounded=1;whiteSpace=wrap;html=1;" parent="1" vertex="1">
                    <mxGeometry y="640" width="120" height="60" as="geometry"/>
                </mxCell>
                <mxCell id="pDl559EHoy8wQC_3aLt_-44" value="" style="edgeStyle=none;html=1;" parent="1" source="20" target="A9kwc2wtEukesiZApwqF-22" edge="1">
                    <mxGeometry relative="1" as="geometry"/>
                </mxCell>
                <mxCell id="pDl559EHoy8wQC_3aLt_-48" value="" style="edgeStyle=none;html=1;entryX=0.5;entryY=0;entryDx=0;entryDy=0;" parent="1" source="20" target="A9kwc2wtEukesiZApwqF-21" edge="1">
                    <mxGeometry relative="1" as="geometry">
                        <mxPoint x="360" y="670.0000000000002" as="targetPoint"/>
                    </mxGeometry>
                </mxCell>
                <mxCell id="pDl559EHoy8wQC_3aLt_-50" value="" style="edgeStyle=none;html=1;entryX=0.5;entryY=0;entryDx=0;entryDy=0;" parent="1" source="20" target="A9kwc2wtEukesiZApwqF-23" edge="1">
                    <mxGeometry relative="1" as="geometry">
                        <mxPoint x="360" y="670.0000000000002" as="targetPoint"/>
                    </mxGeometry>
                </mxCell>
                <mxCell id="20" value="Cài đặt STS" style="rounded=1;whiteSpace=wrap;html=1;" parent="1" vertex="1">
                    <mxGeometry x="160" y="640" width="120" height="60" as="geometry"/>
                </mxCell>
                <mxCell id="21" value="Tìm kiếm và lọc" style="rounded=1;whiteSpace=wrap;html=1;" parent="1" vertex="1">
                    <mxGeometry x="400" y="640" width="120" height="60" as="geometry"/>
                </mxCell>
                <mxCell id="A9kwc2wtEukesiZApwqF-21" value="Chọn chu kỳ&amp;nbsp;&lt;div&gt;(T2-CN)&lt;/div&gt;" style="rounded=1;whiteSpace=wrap;html=1;" parent="1" vertex="1">
                    <mxGeometry y="740" width="120" height="60" as="geometry"/>
                </mxCell>
                <mxCell id="A9kwc2wtEukesiZApwqF-22" value="Bật/tắt Carry-over" style="rounded=1;whiteSpace=wrap;html=1;" parent="1" vertex="1">
                    <mxGeometry x="160" y="740" width="120" height="60" as="geometry"/>
                </mxCell>
                <mxCell id="A9kwc2wtEukesiZApwqF-23" value="Ngưỡng cảnh báo&lt;div&gt;(&amp;gt;80%)&lt;/div&gt;" style="rounded=1;whiteSpace=wrap;html=1;" parent="1" vertex="1">
                    <mxGeometry x="317.5" y="740" width="120" height="60" as="geometry"/>
                </mxCell>
                <mxCell id="A9kwc2wtEukesiZApwqF-24" value="&lt;strong data-end=&quot;35&quot; data-start=&quot;10&quot;&gt;carry-over (rollover)&lt;/strong&gt; là cơ chế &lt;strong data-end=&quot;96&quot; data-start=&quot;46&quot;&gt;chuyển số dư/thâm hụt của kỳ trước sang kỳ sau&lt;/strong&gt;. Dùng trong STS tuần nghĩa là phần “còn xài an toàn” cuối tuần sẽ cộng (hoặc trừ) vào STS của tuần kế tiếp, thay vì “về 0”." style="text;html=1;align=center;verticalAlign=middle;whiteSpace=wrap;rounded=0;" parent="1" vertex="1">
                    <mxGeometry x="20" y="880" width="1060" height="30" as="geometry"/>
                </mxCell>
                <mxCell id="A9kwc2wtEukesiZApwqF-25" value="&lt;h1 style=&quot;margin-top: 0px;&quot;&gt;Bottom-sheet&lt;/h1&gt;&lt;div&gt;&lt;span style=&quot;color: rgb(0, 0, 0); text-align: center;&quot;&gt;Nhập số tiền → Nhập hạng mục → Xác nhận&lt;/span&gt;&lt;/div&gt;" style="text;html=1;whiteSpace=wrap;overflow=hidden;rounded=0;" parent="1" vertex="1">
                    <mxGeometry x="30" y="920" width="180" height="120" as="geometry"/>
                </mxCell>
            </root>
        </mxGraphModel>
    </diagram>
    <diagram name="sinking fund" id="y_arIv6Xp1AnpXnieoOG">
        <mxGraphModel dx="2561" dy="806" grid="1" gridSize="10" guides="1" tooltips="1" connect="1" arrows="1" fold="1" page="1" pageScale="1" pageWidth="850" pageHeight="1100" math="0" shadow="0">
            <root>
                <mxCell id="OM76GdOoTxySRp9YimcE-0"/>
                <mxCell id="OM76GdOoTxySRp9YimcE-1" parent="OM76GdOoTxySRp9YimcE-0"/>
                <mxCell id="BBsSzzlejR_-uLDB6Vv0-1" value="" style="edgeStyle=none;html=1;" edge="1" parent="OM76GdOoTxySRp9YimcE-1" source="OM76GdOoTxySRp9YimcE-2" target="OM76GdOoTxySRp9YimcE-3">
                    <mxGeometry relative="1" as="geometry"/>
                </mxCell>
                <mxCell id="OM76GdOoTxySRp9YimcE-2" value="Đã Login" style="rounded=1;whiteSpace=wrap;html=1;" vertex="1" parent="OM76GdOoTxySRp9YimcE-1">
                    <mxGeometry x="237.5" y="40" width="120" height="60" as="geometry"/>
                </mxCell>
                <mxCell id="BBsSzzlejR_-uLDB6Vv0-2" value="" style="edgeStyle=none;html=1;" edge="1" parent="OM76GdOoTxySRp9YimcE-1" source="OM76GdOoTxySRp9YimcE-3" target="OM76GdOoTxySRp9YimcE-6">
                    <mxGeometry relative="1" as="geometry"/>
                </mxCell>
                <mxCell id="OM76GdOoTxySRp9YimcE-3" value="Vào Sinking Funds" style="rounded=1;whiteSpace=wrap;html=1;" vertex="1" parent="OM76GdOoTxySRp9YimcE-1">
                    <mxGeometry x="237.5" y="160" width="120" height="60" as="geometry"/>
                </mxCell>
                <mxCell id="BBsSzzlejR_-uLDB6Vv0-24" value="" style="edgeStyle=none;html=1;" edge="1" parent="OM76GdOoTxySRp9YimcE-1" source="OM76GdOoTxySRp9YimcE-4" target="OM76GdOoTxySRp9YimcE-8">
                    <mxGeometry relative="1" as="geometry"/>
                </mxCell>
                <mxCell id="OM76GdOoTxySRp9YimcE-4" value="[CTA] Tạo quỹ" style="rounded=1;whiteSpace=wrap;html=1;" vertex="1" parent="OM76GdOoTxySRp9YimcE-1">
                    <mxGeometry x="800" y="520" width="120" height="60" as="geometry"/>
                </mxCell>
                <mxCell id="BBsSzzlejR_-uLDB6Vv0-4" value="" style="edgeStyle=none;html=1;" edge="1" parent="OM76GdOoTxySRp9YimcE-1" source="OM76GdOoTxySRp9YimcE-5" target="OM76GdOoTxySRp9YimcE-12">
                    <mxGeometry relative="1" as="geometry"/>
                </mxCell>
                <mxCell id="BBsSzzlejR_-uLDB6Vv0-9" value="" style="edgeStyle=none;html=1;entryX=0.5;entryY=0;entryDx=0;entryDy=0;" edge="1" parent="OM76GdOoTxySRp9YimcE-1" source="OM76GdOoTxySRp9YimcE-5" target="OM76GdOoTxySRp9YimcE-11">
                    <mxGeometry relative="1" as="geometry">
                        <mxPoint x="157.5" y="430" as="targetPoint"/>
                    </mxGeometry>
                </mxCell>
                <mxCell id="BBsSzzlejR_-uLDB6Vv0-11" value="" style="edgeStyle=none;html=1;entryX=0.5;entryY=0;entryDx=0;entryDy=0;" edge="1" parent="OM76GdOoTxySRp9YimcE-1" source="OM76GdOoTxySRp9YimcE-5" target="wOUh6NNShI-R_qVWOP0e-0">
                    <mxGeometry relative="1" as="geometry">
                        <mxPoint x="438" y="430" as="targetPoint"/>
                    </mxGeometry>
                </mxCell>
                <mxCell id="BBsSzzlejR_-uLDB6Vv0-13" value="" style="edgeStyle=none;html=1;entryX=0;entryY=0.5;entryDx=0;entryDy=0;" edge="1" parent="OM76GdOoTxySRp9YimcE-1" source="OM76GdOoTxySRp9YimcE-5" target="OM76GdOoTxySRp9YimcE-4">
                    <mxGeometry relative="1" as="geometry">
                        <mxPoint x="457.5" y="430" as="targetPoint"/>
                    </mxGeometry>
                </mxCell>
                <mxCell id="OM76GdOoTxySRp9YimcE-5" value="Màn hình sinking funds" style="rounded=1;whiteSpace=wrap;html=1;" vertex="1" parent="OM76GdOoTxySRp9YimcE-1">
                    <mxGeometry x="237.5" y="400" width="120" height="60" as="geometry"/>
                </mxCell>
                <mxCell id="BBsSzzlejR_-uLDB6Vv0-3" value="" style="edgeStyle=none;html=1;" edge="1" parent="OM76GdOoTxySRp9YimcE-1" source="OM76GdOoTxySRp9YimcE-6" target="OM76GdOoTxySRp9YimcE-5">
                    <mxGeometry relative="1" as="geometry"/>
                </mxCell>
                <mxCell id="BBsSzzlejR_-uLDB6Vv0-7" value="" style="edgeStyle=none;html=1;entryX=0;entryY=0.5;entryDx=0;entryDy=0;" edge="1" parent="OM76GdOoTxySRp9YimcE-1" source="OM76GdOoTxySRp9YimcE-6" target="OM76GdOoTxySRp9YimcE-7">
                    <mxGeometry relative="1" as="geometry">
                        <mxPoint x="452.5" y="320" as="targetPoint"/>
                    </mxGeometry>
                </mxCell>
                <mxCell id="OM76GdOoTxySRp9YimcE-6" value="Chưa có data" style="rhombus;whiteSpace=wrap;html=1;" vertex="1" parent="OM76GdOoTxySRp9YimcE-1">
                    <mxGeometry x="230" y="280" width="135" height="80" as="geometry"/>
                </mxCell>
                <mxCell id="mgcl6Eags5oCAcEvkGDx-1" value="" style="edgeStyle=none;html=1;entryX=0.5;entryY=0;entryDx=0;entryDy=0;" edge="1" parent="OM76GdOoTxySRp9YimcE-1" source="OM76GdOoTxySRp9YimcE-7" target="OM76GdOoTxySRp9YimcE-4">
                    <mxGeometry relative="1" as="geometry">
                        <mxPoint x="860" y="430" as="targetPoint"/>
                    </mxGeometry>
                </mxCell>
                <mxCell id="OM76GdOoTxySRp9YimcE-7" value="Empty State" style="rounded=1;whiteSpace=wrap;html=1;" vertex="1" parent="OM76GdOoTxySRp9YimcE-1">
                    <mxGeometry x="800" y="290" width="120" height="60" as="geometry"/>
                </mxCell>
                <mxCell id="OM76GdOoTxySRp9YimcE-8" value="Nhập mục tiêu&amp;nbsp;&lt;span style=&quot;color: rgb(0, 0, 0);&quot;&gt;→&amp;nbsp;&lt;/span&gt;tổng tiền&amp;nbsp;&lt;span style=&quot;color: rgb(0, 0, 0);&quot;&gt;→&amp;nbsp;&lt;/span&gt;&amp;nbsp;hạn góp&amp;nbsp;&lt;div&gt;&lt;span style=&quot;color: rgb(0, 0, 0);&quot;&gt;→&amp;nbsp; xác nhận&lt;/span&gt;&lt;/div&gt;" style="rounded=1;whiteSpace=wrap;html=1;" vertex="1" parent="OM76GdOoTxySRp9YimcE-1">
                    <mxGeometry x="800" y="640" width="120" height="60" as="geometry"/>
                </mxCell>
                <mxCell id="BBsSzzlejR_-uLDB6Vv0-14" value="" style="edgeStyle=none;html=1;" edge="1" parent="OM76GdOoTxySRp9YimcE-1" source="OM76GdOoTxySRp9YimcE-11" target="OM76GdOoTxySRp9YimcE-14">
                    <mxGeometry relative="1" as="geometry"/>
                </mxCell>
                <mxCell id="BBsSzzlejR_-uLDB6Vv0-17" value="" style="edgeStyle=none;html=1;entryX=0.365;entryY=0.167;entryDx=0;entryDy=0;entryPerimeter=0;" edge="1" parent="OM76GdOoTxySRp9YimcE-1" source="OM76GdOoTxySRp9YimcE-11" target="OM76GdOoTxySRp9YimcE-13">
                    <mxGeometry relative="1" as="geometry">
                        <mxPoint x="-162.5" y="550" as="targetPoint"/>
                    </mxGeometry>
                </mxCell>
                <mxCell id="BBsSzzlejR_-uLDB6Vv0-19" value="" style="edgeStyle=none;html=1;entryX=0.5;entryY=0;entryDx=0;entryDy=0;" edge="1" parent="OM76GdOoTxySRp9YimcE-1" source="OM76GdOoTxySRp9YimcE-11" target="VBCV5usA_6Df5zzvEOan-0">
                    <mxGeometry relative="1" as="geometry">
                        <mxPoint x="117.5" y="550" as="targetPoint"/>
                    </mxGeometry>
                </mxCell>
                <mxCell id="OM76GdOoTxySRp9YimcE-11" value="Chi tiết quỹ" style="rounded=1;whiteSpace=wrap;html=1;" vertex="1" parent="OM76GdOoTxySRp9YimcE-1">
                    <mxGeometry x="-82.5" y="520" width="120" height="60" as="geometry"/>
                </mxCell>
                <mxCell id="BBsSzzlejR_-uLDB6Vv0-5" value="" style="edgeStyle=none;html=1;" edge="1" parent="OM76GdOoTxySRp9YimcE-1" source="OM76GdOoTxySRp9YimcE-12" target="OM76GdOoTxySRp9YimcE-15">
                    <mxGeometry relative="1" as="geometry"/>
                </mxCell>
                <mxCell id="OM76GdOoTxySRp9YimcE-12" value="Lịch sử" style="rounded=1;whiteSpace=wrap;html=1;" vertex="1" parent="OM76GdOoTxySRp9YimcE-1">
                    <mxGeometry x="237.5" y="520" width="120" height="60" as="geometry"/>
                </mxCell>
                <mxCell id="OM76GdOoTxySRp9YimcE-13" value="Góp quỹ" style="rounded=1;whiteSpace=wrap;html=1;" vertex="1" parent="OM76GdOoTxySRp9YimcE-1">
                    <mxGeometry x="-243.75" y="640" width="120" height="60" as="geometry"/>
                </mxCell>
                <mxCell id="OM76GdOoTxySRp9YimcE-14" value="Chỉnh sửa" style="rounded=1;whiteSpace=wrap;html=1;" vertex="1" parent="OM76GdOoTxySRp9YimcE-1">
                    <mxGeometry x="-83.75" y="640" width="120" height="60" as="geometry"/>
                </mxCell>
                <mxCell id="OM76GdOoTxySRp9YimcE-15" value="Lọc và tìm kiếm" style="rounded=1;whiteSpace=wrap;html=1;" vertex="1" parent="OM76GdOoTxySRp9YimcE-1">
                    <mxGeometry x="237.5" y="640" width="120" height="60" as="geometry"/>
                </mxCell>
                <mxCell id="BBsSzzlejR_-uLDB6Vv0-21" value="" style="edgeStyle=none;html=1;entryX=0.5;entryY=0;entryDx=0;entryDy=0;" edge="1" parent="OM76GdOoTxySRp9YimcE-1" source="wOUh6NNShI-R_qVWOP0e-0" target="VBCV5usA_6Df5zzvEOan-1">
                    <mxGeometry relative="1" as="geometry">
                        <mxPoint x="437.5" y="550" as="targetPoint"/>
                    </mxGeometry>
                </mxCell>
                <mxCell id="BBsSzzlejR_-uLDB6Vv0-23" value="" style="edgeStyle=none;html=1;entryX=0.5;entryY=0;entryDx=0;entryDy=0;" edge="1" parent="OM76GdOoTxySRp9YimcE-1" source="wOUh6NNShI-R_qVWOP0e-0" target="VBCV5usA_6Df5zzvEOan-2">
                    <mxGeometry relative="1" as="geometry">
                        <mxPoint x="718" y="550" as="targetPoint"/>
                    </mxGeometry>
                </mxCell>
                <mxCell id="wOUh6NNShI-R_qVWOP0e-0" value="Cài đặt" style="rounded=1;whiteSpace=wrap;html=1;" vertex="1" parent="OM76GdOoTxySRp9YimcE-1">
                    <mxGeometry x="517.5" y="520" width="120" height="60" as="geometry"/>
                </mxCell>
                <mxCell id="VBCV5usA_6Df5zzvEOan-0" value="Rút&amp;nbsp; quỹ" style="rounded=1;whiteSpace=wrap;html=1;" vertex="1" parent="OM76GdOoTxySRp9YimcE-1">
                    <mxGeometry x="78.75" y="640" width="120" height="60" as="geometry"/>
                </mxCell>
                <mxCell id="VBCV5usA_6Df5zzvEOan-1" value="Đổi nhịp góp" style="rounded=1;whiteSpace=wrap;html=1;" vertex="1" parent="OM76GdOoTxySRp9YimcE-1">
                    <mxGeometry x="436.25" y="640" width="120" height="60" as="geometry"/>
                </mxCell>
                <mxCell id="VBCV5usA_6Df5zzvEOan-2" value="Bật/ tắt làm tròn" style="rounded=1;whiteSpace=wrap;html=1;" vertex="1" parent="OM76GdOoTxySRp9YimcE-1">
                    <mxGeometry x="598.75" y="640" width="120" height="60" as="geometry"/>
                </mxCell>
                <mxCell id="BBsSzzlejR_-uLDB6Vv0-0" value="&lt;h1 style=&quot;margin-top: 0px;&quot;&gt;Tạo quỹ&lt;/h1&gt;&lt;h1 style=&quot;margin-top: 0px;&quot;&gt;&lt;span style=&quot;color: rgb(63, 63, 63); background-color: transparent; font-size: 12px; font-weight: normal;&quot;&gt;B1: &lt;/span&gt;&lt;em style=&quot;color: rgb(63, 63, 63); background-color: transparent; font-size: 12px; font-weight: normal;&quot; data-end=&quot;954&quot; data-start=&quot;932&quot;&gt;Mục tiêu + Tổng tiền&lt;br&gt;&lt;/em&gt;&lt;span style=&quot;color: rgb(63, 63, 63); background-color: transparent; font-size: 12px; font-weight: normal;&quot;&gt;B2: &lt;/span&gt;&lt;em style=&quot;color: rgb(63, 63, 63); background-color: transparent; font-size: 12px; font-weight: normal;&quot; data-end=&quot;1014&quot; data-start=&quot;966&quot;&gt;Hạn/kỳ góp (tuần/tháng) + gợi ý mức góp mỗi kỳ&lt;br&gt;&lt;/em&gt;&lt;span style=&quot;background-color: transparent; font-size: 12px; font-weight: normal; color: rgb(63, 63, 63);&quot;&gt;B3 (tùy chọn): &lt;/span&gt;&lt;em style=&quot;background-color: transparent; font-size: 12px; font-weight: normal; color: rgb(63, 63, 63);&quot; data-end=&quot;1069&quot; data-start=&quot;1037&quot;&gt;Quy tắc: góp tự động, làm tròn&lt;/em&gt;&lt;/h1&gt;" style="text;html=1;whiteSpace=wrap;overflow=hidden;rounded=0;" vertex="1" parent="OM76GdOoTxySRp9YimcE-1">
                    <mxGeometry x="-90" y="860" width="850" height="150" as="geometry"/>
                </mxCell>
            </root>
        </mxGraphModel>
    </diagram>
    <diagram name="Zero-based" id="Lo5hzEGGQnDa6T6AHL4g">
        <mxGraphModel dx="2263" dy="766" grid="1" gridSize="10" guides="1" tooltips="1" connect="1" arrows="1" fold="1" page="1" pageScale="1" pageWidth="850" pageHeight="1100" math="0" shadow="0">
            <root>
                <mxCell id="GaF_CXB41CtWX9kAlgPL-0"/>
                <mxCell id="GaF_CXB41CtWX9kAlgPL-1" parent="GaF_CXB41CtWX9kAlgPL-0"/>
                <mxCell id="GaF_CXB41CtWX9kAlgPL-2" value="" style="edgeStyle=none;html=1;" parent="GaF_CXB41CtWX9kAlgPL-1" source="GaF_CXB41CtWX9kAlgPL-3" target="GaF_CXB41CtWX9kAlgPL-5" edge="1">
                    <mxGeometry relative="1" as="geometry"/>
                </mxCell>
                <mxCell id="GaF_CXB41CtWX9kAlgPL-3" value="Đã Login" style="rounded=1;whiteSpace=wrap;html=1;" parent="GaF_CXB41CtWX9kAlgPL-1" vertex="1">
                    <mxGeometry x="237.5" y="40" width="120" height="60" as="geometry"/>
                </mxCell>
                <mxCell id="GaF_CXB41CtWX9kAlgPL-4" value="" style="edgeStyle=none;html=1;" parent="GaF_CXB41CtWX9kAlgPL-1" source="GaF_CXB41CtWX9kAlgPL-5" target="GaF_CXB41CtWX9kAlgPL-15" edge="1">
                    <mxGeometry relative="1" as="geometry"/>
                </mxCell>
                <mxCell id="GaF_CXB41CtWX9kAlgPL-5" value="Vào Zero-based" style="rounded=1;whiteSpace=wrap;html=1;" parent="GaF_CXB41CtWX9kAlgPL-1" vertex="1">
                    <mxGeometry x="237.5" y="160" width="120" height="60" as="geometry"/>
                </mxCell>
                <mxCell id="GaF_CXB41CtWX9kAlgPL-6" value="" style="edgeStyle=none;html=1;" parent="GaF_CXB41CtWX9kAlgPL-1" source="GaF_CXB41CtWX9kAlgPL-7" target="GaF_CXB41CtWX9kAlgPL-18" edge="1">
                    <mxGeometry relative="1" as="geometry"/>
                </mxCell>
                <mxCell id="GaF_CXB41CtWX9kAlgPL-7" value="Bắt đầu phân bổ" style="rounded=1;whiteSpace=wrap;html=1;" parent="GaF_CXB41CtWX9kAlgPL-1" vertex="1">
                    <mxGeometry x="640" y="520" width="120" height="60" as="geometry"/>
                </mxCell>
                <mxCell id="GaF_CXB41CtWX9kAlgPL-9" value="" style="edgeStyle=none;html=1;entryX=0.5;entryY=0;entryDx=0;entryDy=0;" parent="GaF_CXB41CtWX9kAlgPL-1" source="GaF_CXB41CtWX9kAlgPL-12" target="GaF_CXB41CtWX9kAlgPL-22" edge="1">
                    <mxGeometry relative="1" as="geometry">
                        <mxPoint x="157.5" y="430" as="targetPoint"/>
                    </mxGeometry>
                </mxCell>
                <mxCell id="GaF_CXB41CtWX9kAlgPL-10" value="" style="edgeStyle=none;html=1;entryX=0.5;entryY=0;entryDx=0;entryDy=0;" parent="GaF_CXB41CtWX9kAlgPL-1" source="GaF_CXB41CtWX9kAlgPL-12" target="GaF_CXB41CtWX9kAlgPL-30" edge="1">
                    <mxGeometry relative="1" as="geometry">
                        <mxPoint x="438" y="430" as="targetPoint"/>
                    </mxGeometry>
                </mxCell>
                <mxCell id="GaF_CXB41CtWX9kAlgPL-11" value="" style="edgeStyle=none;html=1;entryX=0;entryY=0.5;entryDx=0;entryDy=0;" parent="GaF_CXB41CtWX9kAlgPL-1" source="GaF_CXB41CtWX9kAlgPL-12" target="GaF_CXB41CtWX9kAlgPL-7" edge="1">
                    <mxGeometry relative="1" as="geometry">
                        <mxPoint x="457.5" y="430" as="targetPoint"/>
                    </mxGeometry>
                </mxCell>
                <mxCell id="GaF_CXB41CtWX9kAlgPL-12" value="Màn hình Zero-Based Allocation" style="rounded=1;whiteSpace=wrap;html=1;" parent="GaF_CXB41CtWX9kAlgPL-1" vertex="1">
                    <mxGeometry x="237.5" y="400" width="120" height="60" as="geometry"/>
                </mxCell>
                <mxCell id="GaF_CXB41CtWX9kAlgPL-13" value="" style="edgeStyle=none;html=1;" parent="GaF_CXB41CtWX9kAlgPL-1" source="GaF_CXB41CtWX9kAlgPL-15" target="GaF_CXB41CtWX9kAlgPL-12" edge="1">
                    <mxGeometry relative="1" as="geometry"/>
                </mxCell>
                <mxCell id="p_FI6Srq8g0ANDI3z6ii-1" value="No" style="edgeLabel;html=1;align=center;verticalAlign=middle;resizable=0;points=[];" vertex="1" connectable="0" parent="GaF_CXB41CtWX9kAlgPL-13">
                    <mxGeometry x="-0.1833" relative="1" as="geometry">
                        <mxPoint as="offset"/>
                    </mxGeometry>
                </mxCell>
                <mxCell id="GaF_CXB41CtWX9kAlgPL-14" value="" style="edgeStyle=none;html=1;entryX=0;entryY=0.5;entryDx=0;entryDy=0;" parent="GaF_CXB41CtWX9kAlgPL-1" source="GaF_CXB41CtWX9kAlgPL-15" target="GaF_CXB41CtWX9kAlgPL-17" edge="1">
                    <mxGeometry relative="1" as="geometry">
                        <mxPoint x="452.5" y="320" as="targetPoint"/>
                    </mxGeometry>
                </mxCell>
                <mxCell id="p_FI6Srq8g0ANDI3z6ii-0" value="Yes" style="edgeLabel;html=1;align=center;verticalAlign=middle;resizable=0;points=[];" vertex="1" connectable="0" parent="GaF_CXB41CtWX9kAlgPL-14">
                    <mxGeometry x="-0.0182" y="-2" relative="1" as="geometry">
                        <mxPoint as="offset"/>
                    </mxGeometry>
                </mxCell>
                <mxCell id="GaF_CXB41CtWX9kAlgPL-15" value="Chưa có data" style="rhombus;whiteSpace=wrap;html=1;" parent="GaF_CXB41CtWX9kAlgPL-1" vertex="1">
                    <mxGeometry x="230" y="280" width="135" height="80" as="geometry"/>
                </mxCell>
                <mxCell id="GaF_CXB41CtWX9kAlgPL-16" value="" style="edgeStyle=none;html=1;entryX=0.5;entryY=0;entryDx=0;entryDy=0;" parent="GaF_CXB41CtWX9kAlgPL-1" source="GaF_CXB41CtWX9kAlgPL-17" target="GaF_CXB41CtWX9kAlgPL-7" edge="1">
                    <mxGeometry relative="1" as="geometry">
                        <mxPoint x="860" y="430" as="targetPoint"/>
                    </mxGeometry>
                </mxCell>
                <mxCell id="GaF_CXB41CtWX9kAlgPL-17" value="Empty State" style="rounded=1;whiteSpace=wrap;html=1;" parent="GaF_CXB41CtWX9kAlgPL-1" vertex="1">
                    <mxGeometry x="640" y="290" width="120" height="60" as="geometry"/>
                </mxCell>
                <mxCell id="GaF_CXB41CtWX9kAlgPL-18" value="Nhập thu nhập&amp;nbsp;&lt;span style=&quot;color: rgb(0, 0, 0);&quot;&gt;→ phân bổ&amp;nbsp;&lt;/span&gt;&lt;span style=&quot;background-color: transparent;&quot;&gt;→&amp;nbsp; xác nhận&amp;nbsp;&lt;/span&gt;" style="rounded=1;whiteSpace=wrap;html=1;" parent="GaF_CXB41CtWX9kAlgPL-1" vertex="1">
                    <mxGeometry x="642.5" y="640" width="117.5" height="60" as="geometry"/>
                </mxCell>
                <mxCell id="GaF_CXB41CtWX9kAlgPL-19" value="" style="edgeStyle=none;html=1;" parent="GaF_CXB41CtWX9kAlgPL-1" source="GaF_CXB41CtWX9kAlgPL-22" target="GaF_CXB41CtWX9kAlgPL-26" edge="1">
                    <mxGeometry relative="1" as="geometry"/>
                </mxCell>
                <mxCell id="GaF_CXB41CtWX9kAlgPL-20" value="" style="edgeStyle=none;html=1;entryX=0.5;entryY=0;entryDx=0;entryDy=0;" parent="GaF_CXB41CtWX9kAlgPL-1" source="GaF_CXB41CtWX9kAlgPL-22" target="GaF_CXB41CtWX9kAlgPL-25" edge="1">
                    <mxGeometry relative="1" as="geometry">
                        <mxPoint x="-162.5" y="550" as="targetPoint"/>
                    </mxGeometry>
                </mxCell>
                <mxCell id="JqXIttXznwvjKr_hHRDg-2" value="" style="edgeStyle=none;html=1;entryX=0.5;entryY=0;entryDx=0;entryDy=0;" parent="GaF_CXB41CtWX9kAlgPL-1" source="GaF_CXB41CtWX9kAlgPL-22" target="JqXIttXznwvjKr_hHRDg-0" edge="1">
                    <mxGeometry relative="1" as="geometry">
                        <mxPoint x="160" y="550" as="targetPoint"/>
                    </mxGeometry>
                </mxCell>
                <mxCell id="GaF_CXB41CtWX9kAlgPL-22" value="Chi tiết quỹ" style="rounded=1;whiteSpace=wrap;html=1;" parent="GaF_CXB41CtWX9kAlgPL-1" vertex="1">
                    <mxGeometry x="120" y="520" width="120" height="60" as="geometry"/>
                </mxCell>
                <mxCell id="GaF_CXB41CtWX9kAlgPL-25" value="Auto-allocate rules" style="rounded=1;whiteSpace=wrap;html=1;" parent="GaF_CXB41CtWX9kAlgPL-1" vertex="1">
                    <mxGeometry x="-40" y="640" width="120" height="60" as="geometry"/>
                </mxCell>
                <mxCell id="GaF_CXB41CtWX9kAlgPL-26" value="Thêm/ Chỉnh sửa danh mục" style="rounded=1;whiteSpace=wrap;html=1;" parent="GaF_CXB41CtWX9kAlgPL-1" vertex="1">
                    <mxGeometry x="120" y="640" width="120" height="60" as="geometry"/>
                </mxCell>
                <mxCell id="GaF_CXB41CtWX9kAlgPL-30" value="Nhận thu nhập" style="rounded=1;whiteSpace=wrap;html=1;" parent="GaF_CXB41CtWX9kAlgPL-1" vertex="1">
                    <mxGeometry x="400" y="520" width="120" height="60" as="geometry"/>
                </mxCell>
                <mxCell id="GaF_CXB41CtWX9kAlgPL-34" value="&lt;h1 style=&quot;margin-top: 0px;&quot;&gt;Tạo quỹ&lt;/h1&gt;&lt;h1 style=&quot;margin-top: 0px;&quot;&gt;&lt;span style=&quot;color: rgb(63, 63, 63); background-color: transparent; font-size: 12px; font-weight: normal;&quot;&gt;B1: &lt;/span&gt;&lt;em style=&quot;color: rgb(63, 63, 63); background-color: transparent; font-size: 12px; font-weight: normal;&quot; data-end=&quot;954&quot; data-start=&quot;932&quot;&gt;Mục tiêu + Tổng tiền&lt;br&gt;&lt;/em&gt;&lt;span style=&quot;color: rgb(63, 63, 63); background-color: transparent; font-size: 12px; font-weight: normal;&quot;&gt;B2: &lt;/span&gt;&lt;em style=&quot;color: rgb(63, 63, 63); background-color: transparent; font-size: 12px; font-weight: normal;&quot; data-end=&quot;1014&quot; data-start=&quot;966&quot;&gt;Hạn/kỳ góp (tuần/tháng) + gợi ý mức góp mỗi kỳ&lt;br&gt;&lt;/em&gt;&lt;span style=&quot;background-color: transparent; font-size: 12px; font-weight: normal; color: rgb(63, 63, 63);&quot;&gt;B3 (tùy chọn): &lt;/span&gt;&lt;em style=&quot;background-color: transparent; font-size: 12px; font-weight: normal; color: rgb(63, 63, 63);&quot; data-end=&quot;1069&quot; data-start=&quot;1037&quot;&gt;Quy tắc: góp tự động, làm tròn&lt;/em&gt;&lt;/h1&gt;" style="text;html=1;whiteSpace=wrap;overflow=hidden;rounded=0;" parent="GaF_CXB41CtWX9kAlgPL-1" vertex="1">
                    <mxGeometry x="-90" y="860" width="850" height="150" as="geometry"/>
                </mxCell>
                <mxCell id="JqXIttXznwvjKr_hHRDg-0" value="Lịch sử phân bổ" style="rounded=1;whiteSpace=wrap;html=1;" parent="GaF_CXB41CtWX9kAlgPL-1" vertex="1">
                    <mxGeometry x="280" y="640" width="120" height="60" as="geometry"/>
                </mxCell>
            </root>
        </mxGraphModel>
    </diagram>
</mxfile>